<svg width="136" height="49" viewBox="0 0 136 49" fill-rule="evenodd" clip-rule="evenodd" fill="#fff" xmlns="http://www.w3.org/2000/svg"><path d="M76.4175 6.91884H78.139L77.4733 4.68467H77.0832L76.4175 6.91884ZM78.4933 8.09133H76.0811L75.5675 9.83041H74.2629L76.2761 3.396H78.3251L80.3472 9.83041H79.0069L78.4933 8.09133Z"/><path d="M82.5873 4.5953V9.83041H81.2416V3.396H85.8943V4.5953H82.5873Z"/><path d="M91.8003 8.63111V9.83041H86.9686V3.396H91.7018V4.5953H88.3036V5.94653H90.9485V7.11723H88.3036V8.63111H91.8003Z"/><path d="M98.6002 3.396V9.83041H97.2545V7.1351H94.3985V9.83041H93.0528V3.396H94.3985V5.90184H97.2545V3.396H98.6002Z"/><path d="M104.684 4.57743H102.674V9.83041H101.325V4.57743H99.3156V3.396H104.684V4.57743Z"/><path d="M110.947 7.8554C110.75 9.12441 109.775 10.0091 108.281 10.0091C106.33 10.0091 105.221 8.65077 105.221 6.70257C105.221 4.75437 106.339 3.396 108.281 3.396C109.704 3.396 110.661 4.2003 110.885 5.371H109.489C109.337 4.86161 108.916 4.58457 108.281 4.58457C107.136 4.58457 106.59 5.51399 106.59 6.70257C106.59 7.88221 107.136 8.82056 108.281 8.82056C108.97 8.82056 109.435 8.4631 109.56 7.8554H110.947Z"/><path d="M116.853 4.57743H114.843V9.83041H113.494V4.57743H111.484V3.396H116.853V4.57743Z"/><path d="M121.724 7.89294C121.724 7.35137 121.387 7.07255 120.695 7.07255H119.102V8.68651H120.677C121.352 8.68651 121.724 8.43271 121.724 7.89294ZM121.541 5.22623C121.541 4.74901 121.232 4.51487 120.622 4.51487H119.102V5.94831H120.631C121.243 5.94653 121.541 5.71238 121.541 5.22623ZM123.116 7.96443C123.116 9.03683 122.415 9.83041 120.877 9.83041H117.748V3.396H120.795C122.234 3.396 122.934 4.18064 122.934 5.09933C122.934 5.68557 122.671 6.1896 122.252 6.39693V6.57746C122.715 6.76691 123.116 7.32456 123.116 7.96443Z"/><path d="M128.898 6.70257C128.898 5.52293 128.348 4.58457 127.142 4.58457C125.945 4.58457 125.387 5.52293 125.387 6.70257C125.387 7.88221 125.945 8.82056 127.142 8.82056C128.348 8.82056 128.898 7.88221 128.898 6.70257ZM130.274 6.70257C130.274 8.57927 129.175 10.0091 127.142 10.0091C125.108 10.0091 124.011 8.57927 124.011 6.70257C124.011 4.82587 125.108 3.396 127.142 3.396C129.175 3.396 130.274 4.82587 130.274 6.70257Z"/><path d="M76.0376 15.1923V19.6893H76.2148L78.6109 15.1923H80.3467V21.6267H79.0994V17.0315H78.9223L76.4725 21.6267H74.7993V15.1923H76.0376Z"/><path d="M87.5049 15.1923V21.6267H86.1592V18.9314H83.3032V21.6267H81.9575V15.1923H83.3032V17.6982H86.1592V15.1923H87.5049Z"/><path d="M94.4842 15.1923V21.6267H93.1385V18.9314H90.2825V21.6267H88.9368V15.1923H90.2825V17.6982H93.1385V15.1923H94.4842Z"/><path d="M100.445 18.4989C100.445 17.3193 99.8956 16.3809 98.6895 16.3809C97.4924 16.3809 96.934 17.3193 96.934 18.4989C96.934 19.6785 97.4924 20.6169 98.6895 20.6169C99.8956 20.6169 100.445 19.6785 100.445 18.4989ZM101.821 18.4989C101.821 20.3756 100.722 21.8055 98.6895 21.8055C96.6549 21.8055 95.5579 20.3756 95.5579 18.4989C95.5579 16.6222 96.6549 15.1923 98.6895 15.1923C100.722 15.1923 101.821 16.6222 101.821 18.4989Z"/><path d="M107.05 19.6893C107.05 19.1477 106.714 18.8689 106.021 18.8689H104.428V20.4828H106.003C106.678 20.4828 107.05 20.229 107.05 19.6893ZM106.868 17.0226C106.868 16.5453 106.558 16.3112 105.948 16.3112H104.428V17.7446H105.957C106.569 17.7429 106.868 17.5087 106.868 17.0226ZM108.442 19.7608C108.442 20.8332 107.741 21.6267 106.204 21.6267H103.074V15.1923H106.121C107.56 15.1923 108.26 15.977 108.26 16.8957C108.26 17.4819 107.997 17.9859 107.578 18.1933V18.3738C108.041 18.5632 108.442 19.1209 108.442 19.7608Z"/><path d="M111.133 18.7152H112.855L112.189 16.481H111.799L111.133 18.7152ZM113.209 19.8877H110.797L110.283 21.6267H108.979L110.992 15.1923H113.041L115.063 21.6267H113.723L113.209 19.8877Z"/><path d="M120.931 21.6518H115.958V15.1923H117.284V20.4489H119.988V15.1923H121.314V20.4489H122.221V23.2353H120.931V21.6518Z"/><path d="M124.533 15.1923V19.6893H124.71L127.105 15.1923H128.842V21.6267H127.595V17.0315H127.418L124.968 21.6267H123.295V15.1923H124.533Z"/><path d="M134.905 13.5837C134.833 14.4292 134.228 14.9546 133.221 14.9546C132.215 14.9546 131.608 14.4292 131.539 13.5837H132.518C132.553 13.8858 132.784 14.136 133.221 14.136C133.648 14.136 133.879 13.8965 133.924 13.5837H134.905ZM131.691 15.2746V19.7143H131.868L134.264 15.2746H136V21.6268H134.753V17.0887H134.574L132.126 21.6268H130.452V15.2746H131.691Z"/><path d="M76.145 28.3668V33.6019H74.7993V27.1675H79.452V28.3668H76.145Z"/><path d="M84.8765 30.2953C84.8765 29.1157 84.3271 28.1773 83.121 28.1773C81.9238 28.1773 81.3655 29.1157 81.3655 30.2953C81.3655 31.475 81.9238 32.4133 83.121 32.4133C84.3271 32.4133 84.8765 31.475 84.8765 30.2953ZM86.2526 30.2953C86.2526 32.172 85.1538 33.6019 83.121 33.6019C81.0863 33.6019 79.9894 32.172 79.9894 30.2953C79.9894 28.4186 81.0863 26.9888 83.121 26.9888C85.1538 26.9888 86.2526 28.4186 86.2526 30.2953Z"/><path d="M91.3345 29.2319C91.3345 28.6635 91.0321 28.3489 90.2161 28.3489H88.8292V30.1148H90.2161C91.0339 30.1148 91.3345 29.7895 91.3345 29.2319ZM92.6945 29.214C92.6945 30.5116 91.8499 31.2962 90.4022 31.2962H88.8292V33.6019H87.505V27.1675H90.4022C91.8499 27.1675 92.6945 27.9342 92.6945 29.214Z"/><path d="M98.4763 30.2953C98.4763 29.1157 97.927 28.1773 96.7208 28.1773C95.5237 28.1773 94.9653 29.1157 94.9653 30.2953C94.9653 31.475 95.5237 32.4133 96.7208 32.4133C97.927 32.4133 98.4763 31.475 98.4763 30.2953ZM99.8524 30.2953C99.8524 32.172 98.7537 33.6019 96.7208 33.6019C94.6862 33.6019 93.5892 32.172 93.5892 30.2953C93.5892 28.4186 94.6862 26.9888 96.7208 26.9888C98.7537 26.9888 99.8524 28.4186 99.8524 30.2953Z"/><path d="M104.976 28.1916H103.051V28.7618C103.051 30.3901 102.773 31.5483 102.405 32.2453H104.976V28.1916ZM107.19 32.2453V35.0318H105.89V33.4482H101.689V35.0318H100.39V32.2453H101.052C101.481 31.4678 101.814 30.2918 101.814 28.4097V26.9888H106.275V32.2453H107.19Z"/><path d="M109.702 30.6903H111.424L110.758 28.4562H110.368L109.702 30.6903ZM111.778 31.8628H109.366L108.852 33.6019H107.548L109.561 27.1675H111.61L113.632 33.6019H112.292L111.778 31.8628Z"/><path d="M74.7993 38.9639H76.902L77.9488 41.5323H78.1278L79.1746 38.9639H81.2415V45.3983H79.987V40.3795H79.8063L78.6342 43.2446H77.4066L76.2345 40.3795H76.0537V45.3983H74.7993V38.9639Z"/><path d="M87.2024 42.0918C87.2024 40.9121 86.653 39.9738 85.4469 39.9738C84.2497 39.9738 83.6914 40.9121 83.6914 42.0918C83.6914 43.2714 84.2497 44.2098 85.4469 44.2098C86.653 44.2098 87.2024 43.2714 87.2024 42.0918ZM88.5785 42.0918C88.5785 43.9685 87.4798 45.3984 85.4469 45.3984C83.4123 45.3984 82.3153 43.9685 82.3153 42.0918C82.3153 40.2151 83.4123 38.7852 85.4469 38.7852C87.4798 38.7852 88.5785 40.2151 88.5785 42.0918Z"/><path d="M95.1998 43.2446C95.003 44.5136 94.0277 45.3984 92.5335 45.3984C90.5829 45.3984 89.4734 44.04 89.4734 42.0918C89.4734 40.1436 90.5919 38.7852 92.5335 38.7852C93.9561 38.7852 94.9135 39.5895 95.1372 40.7602H93.7414C93.5893 40.2508 93.1687 39.9738 92.5335 39.9738C91.3882 39.9738 90.8424 40.9032 90.8424 42.0918C90.8424 43.2714 91.3882 44.2098 92.5335 44.2098C93.2224 44.2098 93.6877 43.8523 93.813 43.2446H95.1998Z"/><path d="M96.4527 38.9639H97.8038V41.4787H99.298L100.524 38.9639H101.918L100.433 42.0918L102 45.3983H100.604L99.3087 42.6941H97.8038V45.3983H96.4527V38.9639Z"/><path d="M106.871 43.4609C106.871 42.9193 106.535 42.6405 105.842 42.6405H104.25V44.2544H105.824C106.499 44.2544 106.871 44.0006 106.871 43.4609ZM106.689 40.7942C106.689 40.3169 106.379 40.0828 105.769 40.0828H104.25V41.5162H105.778C106.39 41.5145 106.689 41.2803 106.689 40.7942ZM108.263 43.5324C108.263 44.6048 107.562 45.3983 106.025 45.3983H102.895V38.9639H105.942C107.381 38.9639 108.081 39.7486 108.081 40.6673C108.081 41.2535 107.818 41.7575 107.399 41.9649V42.1454C107.863 42.3348 108.263 42.8925 108.263 43.5324Z"/><path d="M115.147 45.3983H116.495V38.9639H115.147V45.3983ZM113.046 43.2714C113.046 42.6673 112.721 42.3259 111.824 42.3259H110.684V44.2187H111.824C112.721 44.2187 113.046 43.8845 113.046 43.2714ZM109.337 45.3983V38.9639H110.684V41.1445H112.032C113.544 41.1445 114.43 41.947 114.43 43.2625C114.43 44.5958 113.542 45.3983 112.032 45.3983H109.337Z"/><path d="M12.6276 43.3661C12.2984 43.7737 11.7955 43.9113 11.4985 43.6736C11.2372 43.4644 11.23 43.0301 11.4573 42.6512C11.2694 42.6995 11.103 42.8013 10.992 42.9622C10.7111 43.3679 10.8739 43.972 11.3607 44.3116C11.8474 44.653 12.4719 44.5976 12.7529 44.1937C12.9497 43.9131 12.9265 43.5341 12.7314 43.216C12.701 43.266 12.667 43.3179 12.6276 43.3661ZM29.286 14.59C28.699 14.0288 28.8726 12.9206 28.8726 12.9206C28.6257 13.128 28.3107 14.5757 28.8332 15.3085C29.4381 16.1593 29.9803 16.2773 30.4599 17.2031C30.5189 17.0708 30.4438 16.7402 30.3185 16.4917C30.1306 16.1146 30.0573 15.8018 30.501 15.6731C31.7555 15.3085 32.9222 17.1173 33.6076 17.0869C34.5668 17.0458 34.7815 16.1861 34.8227 16.145C34.8638 16.1039 34.318 16.5168 33.7007 16.4435C32.7236 16.3255 32.2709 15.2281 31.1721 15.0029C30.4688 14.8617 29.8747 15.153 29.286 14.59ZM28.6185 34.7422C28.2928 35.2195 28.5416 35.8933 29.4059 36.1453C30.1843 36.3723 30.6997 36.6082 31.0808 36.9925C31.641 37.5519 31.9022 37.6216 32.0364 37.6181L8.1217 4.46475L7.80496 4.69532C7.80496 4.69532 21.6055 23.8288 27.7434 32.3418C27.9725 32.6582 28.9066 34.3186 28.6185 34.7422ZM28.5255 36.2525C27.6164 36.2758 26.5731 36.5993 25.5227 35.627C24.1609 34.3687 22.7418 35.173 22.7418 35.173C22.7418 35.173 23.6384 36.0667 23.1391 36.4348C22.3267 37.0354 22.9244 37.7396 22.8528 38.0149C22.7794 38.2883 21.9616 38.3455 20.5926 37.7199C19.8142 37.3607 19.102 37.3732 18.6332 37.4483C18.2788 37.5072 18.3969 37.7646 18.4757 37.8379C18.4757 37.8379 19.0519 38.3652 19.2756 38.5117C19.4563 38.6261 19.9144 39.0068 20.0862 38.8835C20.2526 38.7637 19.8894 38.0899 19.8894 38.0899C19.8894 38.0899 22.5879 38.9907 23.531 38.9907C24.6279 38.9907 23.6008 37.1659 24.4633 37.0801C24.8982 37.0354 25.4422 37.7146 26.3369 37.8433C26.9614 37.9344 27.5627 37.6681 28.1765 37.5144C28.8297 37.3517 29.0766 38.1614 29.1679 38.8746C29.184 38.9907 29.2072 39.2856 29.3325 39.5019C29.5473 38.4742 29.8354 36.2222 28.5255 36.2525ZM35.3541 38.3634C34.998 37.4054 34.3198 37.8182 34.0156 37.7128C33.7114 37.6073 33.3177 37.2284 33.1907 36.2114C33.0636 35.1926 32.1993 35.7431 32.1993 35.7431C32.1993 35.7431 33.1996 37.7503 33.6022 38.8192C34.0067 39.8862 34.3467 39.0587 34.8388 39.6449C35.3345 40.2311 35.2772 43.241 34.9962 44.2098C34.6222 45.4931 33.8724 46.3975 33.1083 47.0069C33.8044 46.9265 35.1018 45.561 35.4669 44.6655C35.8856 43.6378 35.6458 42.6887 35.6458 42.6887L36.231 42.6369L35.8731 41.7039L36.4386 41.6181C36.4422 41.6181 35.7085 39.3178 35.3541 38.3634ZM12.1033 40.2669C11.3875 40.0703 10.6162 40.0345 9.85214 40.1364C9.06297 40.2544 8.4277 40.4778 7.76738 40.4438C7.11064 40.4278 6.49506 40.1704 6.09421 39.6949C5.91347 39.4858 5.78284 39.241 5.688 38.9818C6.00474 38.3258 6.62211 37.661 7.72086 37.0497C11.5629 34.9138 10.2924 32.5045 10.0526 29.7127C9.93087 28.2953 10.219 27.0031 10.9473 26.3489C11.9763 25.4213 13.7049 25.5357 13.7049 25.5357C13.5081 25.2836 11.1925 24.4543 9.42445 24.9673C7.53117 25.5178 7.18043 26.8887 6.85474 27.8628C6.57379 28.7082 6.20516 29.7019 4.53199 30.4044C1.71712 31.5858 1.90681 33.8003 1.90681 33.8003C1.90681 33.8003 0.886797 31.6126 3.62114 29.7645C7.09453 27.4177 5.75779 25.6143 6.91916 24.5383C7.82644 23.7001 8.91087 23.8341 10.5679 24.2863C10.2709 23.9342 5.86873 22.0879 5.35873 26.0093C4.92567 29.3427 1.74217 28.878 1.18922 32.0148C0.800902 34.24 2.90534 36.1042 2.90534 36.1042C2.90534 36.1042 1.22322 32.7351 4.53199 31.3731C6.82074 30.433 8.12528 29.3463 8.46528 28.2739C8.4456 28.617 8.44918 28.9817 8.45813 29.3802C8.49391 30.8887 9.2115 32.0666 8.99139 34.1882C8.86971 35.3553 6.73664 36.5206 5.54663 37.7199C5.58778 37.1819 5.73273 36.66 6.00116 36.2293C6.30179 35.77 6.7939 35.2766 7.00864 34.7333C7.2538 34.1971 7.2878 33.6269 7.20906 33.1658C7.14464 32.7905 7.01222 32.492 6.87085 32.24C6.81716 32.2614 6.76706 32.2829 6.71695 32.2989C6.95853 32.8637 7.09275 33.7217 6.62748 34.5546C6.39663 35.0318 5.98684 35.3696 5.55021 35.929C5.15294 36.4831 4.87736 37.1802 4.84157 37.9398C4.83083 38.1811 4.85409 38.4277 4.89525 38.6762C4.40851 39.9505 4.96325 41.5967 5.40705 42.3581C5.93852 43.2643 6.43779 43.9274 6.17832 44.9801C5.91705 46.0328 6.83148 45.6682 7.47927 45.679C7.68328 45.6807 7.89623 45.6825 8.08949 45.6825C8.51539 45.6807 8.69076 45.3715 8.42949 44.9533C7.97675 44.2312 7.25738 43.1624 6.68474 42.7048C6.17295 42.2955 5.33726 41.2195 5.4142 39.9738C6.16937 40.871 7.01938 41.1534 7.72086 41.2178C8.54581 41.291 9.32424 40.98 9.95772 40.88C10.6234 40.7745 11.3052 40.7924 11.9226 40.9425C12.5382 41.0962 13.0983 41.3786 13.5295 41.7557C13.968 42.1311 14.2095 42.6298 14.3366 43.1105C14.5746 44.0578 13.9232 44.9461 13.3971 45.4126C13.4293 45.4484 13.4705 45.4823 13.5063 45.5145C14.4261 44.9604 14.9218 43.9935 14.7428 42.8389C14.5746 41.7039 13.5474 40.6172 12.1033 40.2669ZM11.3535 22.5222C12.4827 23.7144 13.696 23.2354 14.2382 23.2997C14.7804 23.3623 15.4049 24.7528 15.0757 26.1005C14.7464 27.4481 14.6158 27.2158 14.3903 28.0612C14.1075 29.1264 15.4264 29.8896 15.1204 30.8709C15.0363 31.1443 14.8466 31.5358 15.0757 31.8414C15.4318 32.3204 16.0098 31.6895 16.7381 31.7967C17.3089 31.8789 17.8118 31.6877 18.0605 31.5375C17.9746 31.1211 16.3301 31.3767 15.9615 30.7046C15.8004 30.4079 15.3691 27.3445 16.3229 25.9754C17.1998 24.7206 16.3856 24.3274 15.7861 23.314C16.6075 22.8618 18.5419 21.9002 18.5419 21.9002C19.1754 22.6295 19.6227 23.2586 20.0075 24.138C20.2115 24.5741 20.3511 25.0441 20.335 25.516C20.3475 25.995 20.1685 26.4669 19.8661 26.894C20.267 26.8315 20.6338 26.1148 20.7448 25.5625C20.8503 25.0084 20.7698 24.4382 20.6195 23.911C20.0612 22.2023 18.762 20.9797 18.762 20.9797C18.762 20.9797 17.0047 21.5821 15.3745 22.4668C14.8609 21.5016 14.3438 21.6732 13.7013 21.7286C13.0643 21.784 12.6795 21.112 12.6795 21.112C13.1734 21.2693 13.8606 21.2961 14.7822 20.9333C16.8472 20.1182 16.0635 18.4113 16.0635 18.4113C16.0635 18.4113 16.1064 19.65 14.8717 19.8251C14.104 19.9324 12.089 19.4337 12.089 19.4337C12.089 19.4337 13.7031 19.246 14.0324 18.3166C14.4798 17.044 15.761 17.5445 15.761 17.5445C15.761 17.5445 15.0774 16.7402 14.0234 17.3693C13.381 17.7572 12.3145 17.8805 11.0064 17.2174C9.70003 16.5561 9.22582 17.6535 8.96097 17.6803C8.69792 17.7107 8.49213 17.2782 8.63886 16.8278C8.78739 16.3756 10.2888 15.9502 12.5489 15.8644C14.0413 15.8072 14.7732 16.1003 15.0971 16.3076C15.1007 16.1843 14.6981 15.632 13.4687 15.33C12.2393 15.0261 12.3198 14.5239 12.3771 13.657C12.4344 12.7902 11.1746 13.1369 10.8686 13.0279C10.5626 12.9189 10.8471 12.2379 10.8471 12.2379C10.4069 12.3648 10.0705 12.7205 10.0866 13.2513C10.0955 13.6052 10.4355 13.8608 10.7737 14.027C11.1119 14.195 11.1674 14.4989 10.559 14.8528C10.0669 15.1387 9.36182 15.5105 8.41697 15.9162C6.31432 16.817 8.9395 18.3702 8.01612 18.8457C7.08917 19.3211 6.86369 19.9431 6.8118 20.2827C6.69727 21.053 7.21264 21.6268 7.21264 21.6268C9.02003 20.6455 10.2244 21.3319 11.3535 22.5222ZM22.0529 19.7679C22.0529 18.9958 22.2515 18.624 22.4645 18.6151C23.1158 18.5883 23.2554 19.5106 23.2644 19.7608C23.2912 20.4954 22.749 20.8475 22.749 20.8475C23.2143 20.8868 23.5811 20.2434 23.6419 19.8341C23.7296 19.2282 23.6223 19.019 23.4075 18.6169C23.4075 18.6169 24.7693 19.9342 24.6244 21.3962C24.4597 23.0531 22.5915 23.9217 22.5915 23.9217C23.1445 24.1201 24.7461 23.9592 25.7696 22.6545C26.3351 21.9342 26.5821 20.8385 25.8967 19.1102C25.2757 17.5409 24.0911 16.2129 25.3509 13.2066C26.5785 10.2754 29.8264 9.8929 31.7805 11.2852C31.9076 11.3746 31.981 11.4836 32.0239 11.598C32.151 11.9448 31.2383 12.3987 31.6374 12.6079C31.913 12.7526 32.2726 12.7902 32.584 13.0261C32.8685 13.2424 32.9258 13.4265 33.0708 13.5605C33.1799 13.6624 33.2282 13.682 33.3338 13.682C32.4498 12.6472 32.3031 11.4675 32.1599 10.2218C31.4656 10.043 30.365 9.48002 29.277 9.35312C28.5952 9.27269 26.9453 9.16545 25.2901 9.97869C23.4254 10.8938 21.4534 12.6758 21.4534 16.8063C21.4516 18.5829 22.0529 19.8698 22.0529 19.7679ZM1.30017 29.3838C2.26112 29.1229 2.26112 28.4097 2.27365 28.2631C2.42755 28.4669 2.48123 28.6903 2.48481 28.9799C2.90892 28.4276 2.80692 27.4696 1.76723 26.8976C1.76723 26.8976 1.82628 28.1559 1.02101 28.5992C0.181739 29.0603 0.0511059 29.3552 0.00457921 29.811C-0.0151052 30.0344 0.0278426 30.2667 0.149528 30.4455C0.258687 30.626 0.443004 30.7529 0.616584 30.7958C0.362477 30.4544 0.312371 29.6519 1.30017 29.3838ZM21.3997 11.7964C19.0447 11.9305 18.2216 11.0868 16.6128 10.3111C14.9987 9.53364 13.6119 10.102 13.3685 10.4684C14.1183 10.5149 14.9701 10.8134 16.586 11.8268C19.8464 13.8751 21.3997 11.7964 21.3997 11.7964ZM20.3439 6.8008C20.0021 6.89196 19.1736 7.02601 19.5601 8.93667C19.9484 10.8491 20.981 10.3862 21.2583 10.1413C21.2583 10.1413 19.8554 9.99477 19.8142 8.33791C19.7749 6.67748 21.6896 6.98311 21.6896 6.98311C21.5751 6.85442 20.8861 6.65603 20.3439 6.8008ZM41.3275 31.1032C40.864 29.4535 39.3859 26.0897 38.3748 24.5562C37.3584 23.0209 36.8394 24.1219 36.435 24.4686C36.0288 24.8154 34.8406 26.8154 34.3198 24.2381C33.7973 21.6589 31.1363 19.4265 31.1363 19.4265C31.6857 21.3676 31.539 22.7885 31.3958 24.0343C31.2526 25.2783 31.5694 25.7144 31.5694 26.4651C31.5694 27.2193 29.3146 27.7126 29.1947 28.2917C29.0802 28.8708 32.5536 31.2498 35.8606 28.8655C36.8555 28.1488 37.4747 30.9298 37.7914 31.6823C38.1117 32.4366 37.4729 32.6689 38.2263 33.5376C38.9796 34.4062 38.3999 35.139 38.3999 35.6806C38.3999 36.1882 39.8923 37.4644 40.1661 37.1855C40.6475 36.7065 39.5577 33.8539 39.1246 32.8691C38.6898 31.8825 37.9954 28.6957 37.5051 27.827C37.2224 27.3302 35.7693 27.6823 35.7693 27.6823L35.6673 27.2962C35.6673 27.2962 35.8695 27.0388 36.0556 26.8422C37.5642 25.2765 37.4461 25.9146 39.0101 27.827C40.5723 29.7377 38.6898 30.4937 40.0498 31.4786C41.4116 32.4652 41.7891 32.7547 41.3275 31.1032ZM16.5395 5.46745C16.5395 5.46745 16.8294 5.56575 17.3841 5.57826C17.9388 5.58899 18.2144 5.07424 18.2144 5.07424C16.8634 4.94019 16.4679 4.46297 16.4679 4.46297C16.4679 4.46297 17.7563 4.39684 18.4077 4.31104C19.0591 4.22346 20.2473 3.90532 20.2473 3.90532C20.2473 3.90532 20.2025 4.97057 20.1936 5.58899C20.1882 6.20741 20.9828 6.07157 21.2476 5.98757C21.5822 5.88211 21.6341 4.64885 21.6896 3.59432C21.7308 2.79717 21.1402 2.79002 20.802 2.93122C20.3045 3.13855 19.3597 3.62471 18.3379 3.93749C17.3161 4.24849 15.7163 4.02149 15.7163 4.02149L15.6286 4.35394L16.9743 5.18148L16.5395 5.46745ZM18.7531 10.5256L19.1181 10.3701C19.1181 10.3701 18.8389 9.5533 18.8193 8.83122C18.8032 8.10556 19.1002 6.50232 19.1002 6.50232H18.7548C18.7548 6.50232 18.5974 7.68017 18.3934 8.71147C18.1912 9.74276 17.6507 9.54079 17.3859 9.52113C17.121 9.50147 15.0202 9.19941 15.0202 9.19941V9.50862C15.0202 9.50862 15.1526 9.52649 16.2156 9.6802C17.2785 9.83391 18.7531 10.5256 18.7531 10.5256ZM20.063 15.0654C19.1968 15.6213 17.7724 15.3461 17.7724 15.3461C17.9639 15.6142 18.9964 15.9323 19.5172 15.9234C19.9681 15.9144 20.3672 15.7357 20.7215 15.3461C21.4946 14.5006 21.1796 13.0922 20.9917 12.9153C20.9935 12.9153 20.9076 14.5239 20.063 15.0654ZM18.0587 40.1436C16.067 38.1561 16.7936 38.3562 18.0587 36.5832C18.9946 35.2695 23.5632 34.1095 25.8645 33.6001L25.8197 33.3892C24.653 33.4411 22.9047 33.5018 21.1492 33.5C18.1411 33.4982 16.9278 32.3526 16.1476 32.4973C13.1573 33.0568 15.2832 36.4867 11.7758 36.0005C8.26665 35.5162 8.38297 39.1534 8.38297 39.1534C9.37792 37.1301 10.4069 37.4143 11.1996 37.3803C12.1176 37.341 13.0124 38.0184 14.3008 36.9353C14.5835 36.6994 15.8648 34.6243 15.6805 35.6609C15.5731 36.2668 15.0488 36.9585 14.6301 37.434C14.3312 37.7736 14.1576 38.0327 14.7661 38.3759C14.9826 38.4992 15.2671 38.6637 15.6358 38.8763C17.0566 39.6932 16.8204 40.6208 15.8952 40.5743C15.2367 40.5386 14.4583 40.2151 13.8051 40.1471C13.5403 40.1203 13.2396 40.2294 13.6584 40.4295C13.8785 40.535 14.1272 40.6869 14.3455 40.9032C15.387 41.9452 14.1415 41.5341 17.1246 41.3733C17.7599 41.3375 18.2108 41.2785 18.5312 41.2124C19.7176 40.9532 18.32 40.4027 18.0587 40.1436ZM33.4 41.8773C33.1602 41.5037 32.967 40.98 32.7433 40.5118C32.2673 39.5162 32.7343 39.7075 32.4409 39.1337C32.1116 38.4992 31.947 39.1212 31.1184 37.8522C30.9556 37.6002 30.6263 37.711 30.5869 38.3187C30.544 38.9246 31.5604 39.4966 32.0239 40.9657C32.491 42.4385 32.8739 42.6083 32.4945 43.5109C32.1205 44.4153 30.2756 44.3599 30.2756 44.3599C31.7161 45.8595 34.6455 43.8148 33.4 41.8773Z"/><path d="M48.9144 48.7943L48.3149 48.5762L65.97 0L66.5677 0.218055L48.9144 48.7943Z"/></svg>