<svg width="21" height="27" viewBox="0 0 21 27" fill="none" xmlns="http://www.w3.org/2000/svg">
<path d="M9.13503 10.5089L11.3089 12.0959L16.5783 4.45953L14.4044 2.87255L9.13503 10.5089Z" fill="#FF1D4B"/>
<path d="M8.58286 13.6782L8.92761 11.1843L10.7585 12.5212L8.58286 13.6782Z" fill="#FF1D4B"/>
<path d="M17.503 3.11939L16.9579 3.90869L14.7844 2.32199L15.3287 1.53314C15.7539 0.916645 16.5878 0.771295 17.1867 1.20824C17.7865 1.64564 17.9279 2.50289 17.503 3.11939Z" fill="#FF1D4B"/>
<path d="M17.7148 5.6475C17.4042 5.8401 17.304 6.255 17.4908 6.57405C18.5539 8.3916 18.9074 10.5354 18.4879 12.6121C17.57 17.1418 13.2422 20.0592 8.83617 19.1169C4.43186 18.1741 1.59467 13.72 2.51167 9.19035C3.42911 4.6593 7.75555 1.7406 12.1634 2.6847C12.5182 2.7603 12.8655 2.5263 12.939 2.1618C13.013 1.79685 12.785 1.43955 12.4302 1.36305C7.31892 0.269098 2.29161 3.6558 1.22717 8.91495C0.162296 14.1736 3.45623 19.3432 8.5693 20.4381C9.21767 20.5771 9.86473 20.6437 10.503 20.6437C14.8934 20.6437 18.8431 17.4789 19.7728 12.8866C20.2602 10.4764 19.8498 7.9866 18.6152 5.87745C18.4288 5.5584 18.0259 5.4558 17.7148 5.6475Z" fill="#FF1D4B"/>
</svg>
