<svg width="1000" height="205" viewBox="0 0 1000 205" fill="none" xmlns="http://www.w3.org/2000/svg">
<path d="M379.634 139.865C396.534 139.865 406.148 130.757 406.148 117.398C406.148 105.761 399.469 99.385 385.2 96.8551L378.622 95.6407C371.841 94.4263 368.805 92.1999 368.805 86.8364C368.805 81.574 372.752 78.538 380.342 78.538C387.831 78.538 392.688 81.4728 396.129 85.8244L405.237 77.2224C399.57 70.4421 391.676 66.7989 381.05 66.7989C365.263 66.7989 355.447 74.9961 355.447 87.646C355.447 99.1827 362.328 105.963 376.598 108.189L383.277 109.201C390.664 110.517 392.891 113.452 392.891 118.208C392.891 124.179 388.64 128.126 380.443 128.126C373.157 128.126 367.186 125.09 362.328 119.422L353.322 128.126C359.293 135.108 367.591 139.865 379.634 139.865Z" fill="#1D2435"/>
<path d="M434.83 138.65H444.14V128.328H434.121V96.1467H444.95V85.8244H434.121V71.3529H422.483V80.3596C422.483 84.0028 421.269 85.8244 417.424 85.8244H413.376V96.1467H421.168V125.191C421.168 133.793 425.924 138.65 434.83 138.65Z" fill="#1D2435"/>
<path d="M469.24 139.865C477.133 139.865 482.902 136.323 484.622 129.542H485.229C486.039 135.007 489.48 138.65 495.046 138.65H502.231V128.328H496.968V103.433C496.968 91.3903 489.378 84.61 475.109 84.61C464.483 84.61 458.31 88.6579 454.465 94.7299L462.156 101.611C464.686 97.9683 468.127 94.9323 474.199 94.9323C481.08 94.9323 484.015 98.3731 484.015 104.243V108.088H475.008C460.638 108.088 452.441 113.452 452.441 124.28C452.441 133.692 458.513 139.865 469.24 139.865ZM473.591 130.453C468.531 130.453 465.597 128.328 465.597 124.078V122.357C465.597 118.208 468.936 115.881 475.717 115.881H484.015V122.863C484.015 127.822 479.36 130.453 473.591 130.453Z" fill="#1D2435"/>
<path d="M525.668 138.65V106.267C525.668 100.498 530.222 98.0695 538.925 98.0695H542.973V85.8244H540.139C531.74 85.8244 527.489 91.1879 526.174 96.7539H525.668V85.8244H512.714V138.65H525.668Z" fill="#1D2435"/>
<path d="M569.334 138.65H578.644V128.328H568.625V96.1467H579.454V85.8244H568.625V71.3529H556.987V80.3596C556.987 84.0028 555.773 85.8244 551.927 85.8244H547.879V96.1467H555.672V125.191C555.672 133.793 560.428 138.65 569.334 138.65Z" fill="#1D2435"/>
<path d="M622.263 138.65H635.217V85.8244H622.263V120.738C622.263 126.405 617.102 129.138 611.941 129.138C605.768 129.138 603.035 125.191 603.035 117.904V85.8244H590.082V119.22C590.082 132.376 596.154 139.865 606.982 139.865C615.685 139.865 619.936 135.108 621.757 129.846H622.263V138.65Z" fill="#1D2435"/>
<path d="M650.183 158.89H663.137V129.846H663.541C665.565 135.817 671.131 139.865 678.114 139.865C691.472 139.865 698.86 129.846 698.86 112.136C698.86 94.5275 691.472 84.61 678.114 84.61C671.131 84.61 665.464 88.4555 663.541 94.5275H663.137V85.8244H650.183V158.89ZM673.965 129.138C667.792 129.138 663.137 126 663.137 120.536V103.737C663.137 98.5755 667.792 95.2359 673.965 95.2359C680.644 95.2359 685.299 100.195 685.299 107.683V116.791C685.299 124.28 680.644 129.138 673.965 129.138Z" fill="#1D2435"/>
<path d="M780.622 138.65H792.159V100.195H765.443V111.428H779.307V115.982C779.307 123.976 772.526 128.024 764.228 128.024C753.602 128.024 746.721 121.345 746.721 108.999V97.6647C746.721 85.2172 753.602 78.6392 764.026 78.6392C772.425 78.6392 777.384 83.1932 779.914 89.2651L790.742 82.8896C785.682 72.5673 776.574 66.7989 764.026 66.7989C745.203 66.7989 732.553 79.8536 732.553 103.534C732.553 127.215 745.102 139.865 761.698 139.865C772.324 139.865 779.003 134.602 780.218 127.721H780.622V138.65Z" fill="#1D2435"/>
<path d="M838.398 138.65H851.352V85.8244H838.398V120.738C838.398 126.405 833.237 129.138 828.076 129.138C821.903 129.138 819.171 125.191 819.171 117.904V85.8244H806.217V119.22C806.217 132.376 812.289 139.865 823.117 139.865C831.82 139.865 836.071 135.108 837.892 129.846H838.398V138.65Z" fill="#1D2435"/>
<path d="M872.795 78.1332C878.057 78.1332 880.385 75.4009 880.385 71.6565V69.6325C880.385 65.8881 878.057 63.1558 872.795 63.1558C867.432 63.1558 865.205 65.8881 865.205 69.6325V71.6565C865.205 75.4009 867.432 78.1332 872.795 78.1332ZM866.318 138.65H879.272V85.8244H866.318V138.65Z" fill="#1D2435"/>
<path d="M927.075 138.65H940.028V63.763H927.075V94.5275H926.569C924.747 88.4555 918.979 84.61 911.996 84.61C898.739 84.61 891.352 94.5275 891.352 112.136C891.352 129.846 898.739 139.865 911.996 139.865C918.979 139.865 924.646 135.817 926.569 129.846H927.075V138.65ZM916.145 129.138C909.466 129.138 904.912 124.28 904.912 116.791V107.683C904.912 100.195 909.466 95.2359 916.145 95.2359C922.319 95.2359 927.075 98.5755 927.075 103.737V120.536C927.075 126 922.319 129.138 916.145 129.138Z" fill="#1D2435"/>
<path d="M976.319 139.865C986.136 139.865 993.827 136.12 998.178 130.15L991.196 122.357C987.957 126.506 984.112 129.542 977.736 129.542C969.235 129.542 964.884 124.381 964.884 116.791V115.476H1000V111.225C1000 96.7539 992.41 84.61 975.915 84.61C960.431 84.61 951.424 95.4383 951.424 112.136C951.424 129.036 960.735 139.865 976.319 139.865ZM976.117 94.3251C982.796 94.3251 986.541 99.2838 986.541 106.57V107.481H964.884V106.671C964.884 99.3851 969.337 94.3251 976.117 94.3251Z" fill="#1D2435"/>
<g style="mix-blend-mode:multiply">
<path d="M161.469 50.9424C133.334 79.0772 133.24 124.599 161.259 152.618L263.144 50.7328C235.125 22.7138 189.603 22.8077 161.469 50.9424Z" fill="#0458FE"/>
</g>
<mask id="mask0" style="mask-type:alpha" maskUnits="userSpaceOnUse" x="140" y="29" width="124" height="124">
<g style="mix-blend-mode:multiply">
<path d="M161.469 50.9461C133.334 79.0808 133.24 124.602 161.259 152.621L263.144 50.7365C235.125 22.7175 189.603 22.8114 161.469 50.9461Z" fill="#0458FE"/>
</g>
</mask>
<g mask="url(#mask0)">
<rect x="265.327" y="29.6519" width="6.78276" height="224.945" transform="rotate(45 265.327 29.6519)" fill="#DEECFF"/>
<rect x="226.79" y="11.5863" width="6.78276" height="224.945" transform="rotate(45 226.79 11.5863)" fill="#DEECFF"/>
<rect x="252.35" y="23.696" width="6.78276" height="224.945" transform="rotate(45 252.35 23.696)" fill="#DEECFF"/>
<rect x="214.615" y="4.83057" width="6.78276" height="224.945" transform="rotate(45 214.615 4.83057)" fill="#DEECFF"/>
<rect x="238.424" y="18.8997" width="6.78276" height="224.945" transform="rotate(45 238.424 18.8997)" fill="#DEECFF"/>
</g>
<g style="mix-blend-mode:multiply">
<path d="M161.47 153.065C189.605 181.2 235.126 181.294 263.145 153.275L161.26 51.39C133.241 79.409 133.335 124.931 161.47 153.065Z" fill="#0458FE"/>
</g>
<path d="M128.106 102.005H42.9933C22.5473 102.005 5.98792 85.7955 5.98792 65.8266C5.98792 45.8375 22.568 29.6482 42.9933 29.6482H128.106V102.005Z" fill="#FF1F55"/>
<g style="mix-blend-mode:multiply">
<path d="M4.44551e-05 102.01L84.8772 102.01C105.267 102.01 121.78 118.175 121.78 138.089C121.78 158.022 105.246 174.167 84.8772 174.167L3.8147e-05 174.167L4.44551e-05 102.01Z" fill="#0458FE"/>
</g>
<path d="M211.946 102.01H230.92C260.31 102.01 284.136 125.835 284.136 155.226V174.2H211.946V102.01Z" fill="#FF1F55"/>
<rect x="49.6255" y="102.01" width="72.155" height="72.155" rx="36.0775" fill="#001EFD"/>
<rect x="56.4772" y="108.86" width="58.4538" height="58.4538" rx="29.2269" fill="#0458FE"/>
<rect x="63.5782" y="115.958" width="44.2512" height="44.2512" rx="22.1256" fill="#001EFD"/>
<rect x="70.91" y="123.294" width="29.5869" height="29.5869" rx="14.7934" fill="#0458FE"/>
<rect x="78.0381" y="130.419" width="15.3299" height="15.3299" rx="7.66494" fill="#001EFD"/>
<rect x="6.08765" y="29.6482" width="72.3585" height="72.3585" rx="36.1792" fill="#E11646"/>
<rect x="13.0397" y="36.6028" width="58.4538" height="58.4538" rx="29.2269" fill="#FF1F55"/>
<rect x="20.1401" y="43.7013" width="44.2512" height="44.2512" rx="22.1256" fill="#E11646"/>
<rect x="27.4738" y="51.0367" width="29.5869" height="29.5869" rx="14.7934" fill="#FF1F55"/>
<rect x="34.6018" y="58.1625" width="15.3299" height="15.3299" rx="7.66494" fill="#E11646"/>
</svg>
