<svg xmlns="http://www.w3.org/2000/svg" style="border: 0 !important; clip: rect(0 0 0 0) !important; height: 1px !important; margin: -1px !important; overflow: hidden !important; padding: 0 !important; position: absolute !important; width: 1px !important;" class="root-svg-symbols-element">
    <symbol id="acceleration" viewBox="0 0 22 22">
      <path d="M11.278 0C5.36211 0 0.555908 4.8062 0.555908 10.7221C0.555908 16.6379 5.36211 21.4441 11.278 21.4441C17.1938 21.4441 22 16.6379 22 10.7221C22 9.56255 21.8234 8.44143 21.4822 7.39426C21.4617 7.33276 21.4293 7.2759 21.3868 7.22692C21.3443 7.17795 21.2926 7.13782 21.2346 7.10882C21.1767 7.07983 21.1135 7.06255 21.0489 7.05795C20.9842 7.05335 20.9193 7.06154 20.8578 7.08204C20.7963 7.10254 20.7394 7.13495 20.6904 7.17743C20.6414 7.21991 20.6013 7.27161 20.5723 7.3296C20.5433 7.38758 20.526 7.45071 20.5214 7.51537C20.5169 7.58004 20.525 7.64498 20.5455 7.70648C20.8555 8.65772 21.0253 9.6658 21.0253 10.7221C21.0253 16.1111 16.667 20.4694 11.278 20.4694C5.88889 20.4694 1.53064 16.1111 1.53064 10.7221C1.53064 9.11486 1.91721 7.60295 2.60437 6.26723L3.9827 7.00589C4.03939 7.03846 4.10205 7.0593 4.16695 7.06715C4.23186 7.07501 4.29768 7.06973 4.3605 7.05162C4.42332 7.03352 4.48186 7.00296 4.53263 6.96177C4.5834 6.92058 4.62536 6.86959 4.65602 6.81185C4.68669 6.75411 4.70541 6.69079 4.7111 6.62566C4.71679 6.56052 4.70931 6.49492 4.68912 6.43273C4.66893 6.37055 4.63643 6.31307 4.59357 6.2637C4.5507 6.21434 4.49834 6.1741 4.43961 6.14538L3.09174 5.42195C3.84027 4.26759 4.83058 3.28362 5.98547 2.53583L6.70891 3.8837C6.73597 3.9456 6.77561 4.00119 6.82531 4.04696C6.875 4.09272 6.93367 4.12766 6.99758 4.14954C7.0615 4.17143 7.12926 4.17979 7.19658 4.17409C7.2639 4.1684 7.32929 4.14877 7.38862 4.11646C7.44795 4.08415 7.49991 4.03985 7.54121 3.98639C7.58252 3.93293 7.61225 3.87146 7.62853 3.8059C7.64482 3.74033 7.64729 3.6721 7.63581 3.60553C7.62432 3.53895 7.59911 3.47549 7.5618 3.41918L6.82313 2.04846C8.02313 1.43112 9.36425 1.05994 10.7906 0.989963V2.43683C10.7897 2.50141 10.8016 2.56553 10.8257 2.62546C10.8498 2.68539 10.8855 2.73994 10.9309 2.78593C10.9762 2.83193 11.0303 2.86845 11.0898 2.89337C11.1494 2.9183 11.2134 2.93114 11.278 2.93114C11.3426 2.93114 11.4065 2.9183 11.4661 2.89337C11.5257 2.86845 11.5797 2.83193 11.625 2.78593C11.6704 2.73994 11.7061 2.68539 11.7302 2.62546C11.7543 2.56553 11.7662 2.50141 11.7653 2.43683V0.989963C13.1926 1.06064 14.5288 1.44186 15.7252 2.06369L14.9941 3.41918C14.9568 3.47549 14.9316 3.53895 14.9201 3.60553C14.9086 3.6721 14.9111 3.74033 14.9274 3.8059C14.9437 3.87146 14.9734 3.93293 15.0147 3.98639C15.056 4.03985 15.108 4.08415 15.1673 4.11646C15.2266 4.14877 15.292 4.1684 15.3594 4.17409C15.4267 4.17979 15.4944 4.17143 15.5583 4.14954C15.6223 4.12766 15.6809 4.09272 15.7306 4.04696C15.7803 4.00119 15.82 3.9456 15.847 3.8837L16.5705 2.54344C17.7167 3.29339 18.6945 4.28616 19.4413 5.43718L18.1087 6.153C17.9946 6.21561 17.91 6.32098 17.8736 6.44594C17.8372 6.5709 17.8519 6.70521 17.9145 6.81932C17.9771 6.93343 18.0825 7.01799 18.2075 7.05441C18.3324 7.09083 18.4667 7.07611 18.5808 7.0135L20.378 6.03877C20.435 6.00778 20.4853 5.96572 20.5258 5.91506C20.5663 5.8644 20.5964 5.80615 20.6141 5.74373C20.6318 5.68132 20.6369 5.61599 20.6291 5.55158C20.6212 5.48717 20.6006 5.42498 20.5684 5.36864C18.715 2.16135 15.2445 0 11.278 0ZM7.08205 6.08446C6.98915 6.0935 6.9008 6.12903 6.8275 6.18681C6.7542 6.2446 6.69904 6.32221 6.66856 6.41043C6.63808 6.49866 6.63358 6.59377 6.65558 6.68448C6.67758 6.77519 6.72516 6.85767 6.79267 6.92212L9.60264 9.73209C9.4279 10.0239 9.3285 10.3595 9.3285 10.7221C9.3285 11.7929 10.2071 12.6715 11.278 12.6715C12.3489 12.6715 13.2274 11.7929 13.2274 10.7221C13.2274 9.65117 12.3489 8.77259 11.278 8.77259C10.9201 8.77259 10.5849 8.87608 10.2956 9.04674L7.47803 6.22915C7.42707 6.17693 7.36503 6.13682 7.29649 6.11178C7.22796 6.08674 7.15467 6.0774 7.08205 6.08446ZM11.278 9.74732C11.8221 9.74732 12.2527 10.1779 12.2527 10.7221C12.2527 11.2662 11.8221 11.6968 11.278 11.6968C10.7339 11.6968 10.3032 11.2662 10.3032 10.7221C10.3032 10.1779 10.7339 9.74732 11.278 9.74732Z"/>
    </symbol>
    <symbol id="arrow-right" viewBox="0 0 16 8">
      <path d="M12 7L15 4L12 1" stroke="#1D2435"/><path stroke="#1D2435" d="M0 4L15 4"/>
    </symbol>
    <symbol id="at-sign" viewBox="0 0 18 18">
      <path fill-rule="evenodd" clip-rule="evenodd" d="M11.4995 4.83332H13.1661V8.99999C13.1661 11.0591 13.324 11.5 13.9995 11.5C15.0864 11.5 15.6661 10.986 15.6661 8.99999C15.6661 4.5922 13.4553 2.33332 8.99957 2.33332C6.11286 2.33369 3.55435 4.19188 2.661 6.93687C1.76766 9.68186 2.74248 12.69 5.07604 14.3892C7.40961 16.0885 10.5717 16.0928 12.9099 14.4L13.8873 15.75C10.9645 17.8661 7.01191 17.8606 4.09495 15.7365C1.178 13.6124 -0.0405225 9.85233 1.07615 6.42109C2.19283 2.98985 5.39098 0.66711 8.99946 0.666656C14.3839 0.666656 17.3328 3.67966 17.3328 8.99999C17.3328 11.9541 15.9652 13.1667 13.9995 13.1667C12.8796 13.1667 12.2387 12.8056 11.8868 12.004C11.1379 12.724 10.1204 13.1667 8.99946 13.1667C6.69827 13.1667 4.83279 11.3012 4.83279 8.99999C4.83279 6.6988 6.69827 4.83332 8.99946 4.83332C9.93746 4.83332 10.8031 5.14328 11.4995 5.66635V4.83332ZM11.4995 8.99999C11.4995 10.3807 10.3802 11.5 8.99946 11.5C7.61874 11.5 6.49946 10.3807 6.49946 8.99999C6.49946 7.61928 7.61874 6.49999 8.99946 6.49999C10.3802 6.49999 11.4995 7.61928 11.4995 8.99999Z" fill="#1D2435"/>
    </symbol>
    <symbol id="box-closed" viewBox="0 0 35 37">
      <path d="M1 7.80556V26.7634C1 28.3993 1.99624 29.8704 3.51536 30.4776L17.3313 36M1 7.80556L15.8083 1.63467C16.7837 1.22817 17.8805 1.22422 18.8589 1.62368L25.6656 4.40278M1 7.80556L9.16564 11.1042M34 7.80556V26.7429C34 28.3891 32.9915 29.8672 31.4586 30.4675L17.3313 36M34 7.80556L17.3313 14.4028M34 7.80556L25.6656 4.40278M17.3313 36V14.4028M17.3313 14.4028L9.16564 11.1042M9.16564 11.1042L25.6656 4.40278M9.16564 11.1042V16.0581" fill="none"/>
    </symbol>
    <symbol id="box-opened" viewBox="0 0 52 40">
      <path d="M10.2 11.5775V32.651L26.4323 39M10.2 11.5775L26.2238 5.04335M10.2 11.5775L1 7.72917L17.4 1L26.2238 5.04335M10.2 11.5775L26.2238 17.9117M26.2238 5.04335L43 11.5775M26.2238 5.04335L35 1L51 7.72917L43 11.5775M26.2238 5.04335V17.9117M43 11.5775V32.651L26.4323 39M43 11.5775L26.4323 17.9941M26.4323 39V17.9941M26.4323 17.9941L26.2238 17.9117" fill="none"/>
    </symbol>
    <symbol id="checklist" viewBox="0 0 28 28">
      <path d="M1 3.83798L3.48773 6.32571L7.32571 2.48773" stroke="#fff"/><path d="M1 14.3045L3.48773 16.7922L7.32571 12.9542" stroke="#fff"/><path d="M1 24.771L3.48773 27.2587L7.32571 23.4207" stroke="#fff"/><path d="M12.5714 4.9563H28" stroke="#fff"/><path d="M12.5714 14.8747H28" stroke="#fff"/><path d="M12.5714 24.793H28" stroke="#fff"/>
    </symbol>
    <symbol id="close" viewBox="0 0 25 24">
      <path d="M24.417,22.782 L23.282,23.917 L12.500,13.135 L1.718,23.917 L0.583,22.782 L11.365,12.000 L0.583,1.218 L1.718,0.083 L12.500,10.865 L23.282,0.083 L24.417,1.218 L13.635,12.000 L24.417,22.782 Z"/>
    </symbol>
    <symbol id="cube" viewBox="0 0 35 37">
      <path d="M1 7.80556V26.7634C1 28.3993 1.99624 29.8704 3.51537 30.4776L17.3313 36M1 7.80556L15.8083 1.63467C16.7837 1.22817 17.8805 1.22422 18.8589 1.62368L34 7.80556M1 7.80556L17.3313 14.4028M34 7.80556V26.7429C34 28.3891 32.9915 29.8672 31.4586 30.4675L17.3313 36M34 7.80556L17.3313 14.4028M17.3313 36V14.4028" fill="none"/>
    </symbol>
    <symbol id="directions" viewBox="0 0 23 21">
      <path d="M11.9342 5.625V4.5H20.1242L22.1979 2.38875L20.1054 0H11.1842V2.625H3.01294L0.924194 5.01375L2.99419 7.125H11.1842V8.25H3.01294L0.924194 10.6388L2.99419 12.75H11.1842V18H6.30919V21H16.8092V18H11.9342V10.125H20.1242L22.1979 8.01375L20.1054 5.625H11.9342ZM16.0592 18.75V20.25H7.05919V18.75H16.0592ZM11.9342 0.75H19.7642L21.1742 2.35875L19.8092 3.75H11.9342V0.75ZM3.30919 6.375L1.94419 4.98375L3.35419 3.375H11.1842V6.375H3.30919ZM11.1842 12H3.30919L1.94419 10.6088L3.35419 9H11.1842V12ZM19.8092 9.375H11.9342V6.375H19.7642L21.1742 7.98375L19.8092 9.375Z"/><path d="M9.68414 4.12483H4.05914V4.87483H9.68414V4.12483Z"/><path d="M9.68414 9.75027H4.05914V10.5003H9.68414V9.75027Z"/><path d="M19.0591 1.49983H13.4341V2.24983H19.0591V1.49983Z"/><path d="M19.0591 7.12489H13.4341V7.87489H19.0591V7.12489Z"/>
    </symbol>
    <symbol id="expand" viewBox="0 0 31 31">
      <path stroke="#fff" d="M1 1H30V30H1z"/><path d="M19.2286 4.31429H26.6857V11.7714" stroke="#fff"/><path d="M11.7714 26.6857L4.31429 26.6857L4.31429 19.2286" stroke="#fff"/><path d="M26.6857 4.31429L4.31429 26.6857" stroke="#fff"/>
    </symbol>
    <symbol id="growing-accelerated" viewBox="0 0 23 33">
      <path d="M11.6401 28.8402C11.6401 24.9742 14.7741 21.8402 18.6401 21.8402H21.8001V25.0002C21.8001 28.8662 18.6661 32.0002 14.8001 32.0002H11.6401L11.6401 28.8402Z" fill="none" stroke="#474E5B" stroke-width="2" stroke-linecap="round" stroke-linejoin="round"/><path d="M4.15991 15.0001C8.02591 15.0001 11.1599 18.1341 11.1599 22.0001L11.1599 25.1601L7.99991 25.1601C4.13392 25.1601 0.999912 22.0261 0.999912 18.1601L0.999912 15.0001L4.15991 15.0001Z" fill="none" stroke="#474E5B" stroke-width="2" stroke-linecap="round" stroke-linejoin="round"/><path d="M11.4001 31.8601V12.1001" fill="none" stroke="#474E5B" stroke-width="2" stroke-linecap="round" stroke-linejoin="round"/><path d="M11.6401 15.74C11.6401 11.874 14.7741 8.73999 18.6401 8.73999H21.8001V11.9C21.8001 15.766 18.6661 18.9 14.8001 18.9H11.6401L11.6401 15.74Z" fill="none"/><path d="M4.15991 1.8999C8.02591 1.8999 11.1599 5.03391 11.1599 8.8999L11.1599 12.0599L7.99991 12.0599C4.13392 12.0599 0.999912 8.9259 0.999912 5.0599L0.999912 1.8999L4.15991 1.8999Z" fill="none"/>
    </symbol>
    <symbol id="growing-angel" viewBox="0 0 23 36">
      <path d="M11.6401 31.8402C11.6401 27.9742 14.7741 24.8402 18.6401 24.8402H21.8001V28.0002C21.8001 31.8662 18.6661 35.0002 14.8001 35.0002H11.6401L11.6401 31.8402Z" fill="none" stroke="#474E5B" stroke-width="2" stroke-linecap="round" stroke-linejoin="round"/><path d="M4.15991 18.0001C8.02591 18.0001 11.1599 21.1341 11.1599 25.0001L11.1599 28.1601L7.99991 28.1601C4.13392 28.1601 0.999912 25.0261 0.999912 21.1601L0.999912 18.0001L4.15991 18.0001Z" fill="none" stroke="#474E5B" stroke-width="2" stroke-linecap="round" stroke-linejoin="round"/><path d="M11.4001 34.8601V15.1001" fill="none" stroke="#474E5B" stroke-width="2" stroke-linecap="round" stroke-linejoin="round"/><path d="M19 5C19 5.88158 18.3859 6.86038 17.0034 7.6736C15.644 8.47323 13.7006 9 11.5 9C9.29944 9 7.35598 8.47323 5.99661 7.6736C4.61413 6.86038 4 5.88158 4 5C4 4.11842 4.61413 3.13962 5.99661 2.3264C7.35598 1.52677 9.29944 1 11.5 1C13.7006 1 15.644 1.52677 17.0034 2.3264C18.3859 3.13962 19 4.11842 19 5Z" fill="none"/>
    </symbol>
    <symbol id="growing-classic" viewBox="0 0 23 38">
      <path d="M11.6401 33.8401C11.6401 29.9741 14.7741 26.8401 18.6401 26.8401H21.8001V30.0001C21.8001 33.8661 18.6661 37.0001 14.8001 37.0001H11.6401L11.6401 33.8401Z" fill="none" stroke="#474E5B" stroke-width="2" stroke-linecap="round" stroke-linejoin="round"/><path d="M4.15991 20C8.02591 20 11.1599 23.134 11.1599 27L11.1599 30.16L7.99991 30.16C4.13392 30.16 0.999912 27.026 0.999912 23.16L0.999912 20L4.15991 20Z" fill="none" stroke="#474E5B" stroke-width="2" stroke-linecap="round" stroke-linejoin="round"/><path d="M11.4001 36.86V17.1" fill="none" stroke="#474E5B" stroke-width="2" stroke-linecap="round" stroke-linejoin="round"/><circle cx="11.02" cy="8.74" r="7.74" fill="none"/>
    </symbol>
    <symbol id="growing-corp" viewBox="0 0 23 36">
      <path d="M11.6401 31.8401C11.6401 27.9741 14.7741 24.8401 18.6401 24.8401H21.8001V28.0001C21.8001 31.8661 18.6661 35.0001 14.8001 35.0001H11.6401L11.6401 31.8401Z" fill="none" stroke="#474E5B" stroke-width="2" stroke-linecap="round" stroke-linejoin="round"/><path d="M4.15991 18C8.02591 18 11.1599 21.134 11.1599 25L11.1599 28.16L7.99991 28.16C4.13392 28.16 0.999912 25.026 0.999912 21.16L0.999912 18L4.15991 18Z" fill="none" stroke="#474E5B" stroke-width="2" stroke-linecap="round" stroke-linejoin="round"/><path d="M11.4001 34.86V15.1" fill="none" stroke="#474E5B" stroke-width="2" stroke-linecap="round" stroke-linejoin="round"/><path fill="none" d="M5,1h12c0.6,0,1,0.4,1,1v11c0,0.6-0.4,1-1,1H5c-0.6,0-1-0.4-1-1V2C4,1.4,4.4,1,5,1z"/>
    </symbol>
    <symbol id="growing-govern" viewBox="0 0 23 34">
      <path d="M11.6401 29.8401C11.6401 25.9741 14.7741 22.8401 18.6401 22.8401H21.8001V26.0001C21.8001 29.8661 18.6661 33.0001 14.8001 33.0001H11.6401L11.6401 29.8401Z" fill="none" stroke="#474E5B" stroke-width="2" stroke-linecap="round" stroke-linejoin="round"/><path d="M4.15991 16C8.02591 16 11.1599 19.134 11.1599 23L11.1599 26.16L7.99991 26.16C4.13392 26.16 0.999912 23.026 0.999912 19.16L0.999912 16L4.15991 16Z" fill="none" stroke="#474E5B" stroke-width="2" stroke-linecap="round" stroke-linejoin="round"/><path d="M11.4001 32.86V13.1" fill="none" stroke="#474E5B" stroke-width="2" stroke-linecap="round" stroke-linejoin="round"/><path d="M5 2.16125C5 1.32274 5.96993 0.85657 6.6247 1.38038L10.8753 4.78087C11.2405 5.07304 11.7595 5.07304 12.1247 4.78087L16.3753 1.38038C17.0301 0.85657 18 1.32274 18 2.16125V11C18 11.5523 17.5523 12 17 12H6C5.44772 12 5 11.5523 5 11V2.16125Z" fill="none"/>
    </symbol>
    <symbol id="growth-program" viewBox="0 0 21 23">
      <path d="M15.64 10.1201H4.60001C4.47801 10.1201 4.36101 10.0717 4.27474 9.98541C4.18847 9.89915 4.14001 9.78214 4.14001 9.66014C4.14001 9.41614 4.04308 9.18214 3.87055 9.0096C3.69801 8.83707 3.46401 8.74014 3.22001 8.74014C3.09801 8.74014 2.98101 8.69168 2.89474 8.60541C2.80847 8.51915 2.76001 8.40214 2.76001 8.28014V3.68015C2.76001 3.55815 2.80847 3.44115 2.89474 3.35488C2.98101 3.26861 3.09801 3.22015 3.22001 3.22015C3.46401 3.22015 3.69801 3.12322 3.87055 2.95069C4.04308 2.77815 4.14001 2.54415 4.14001 2.30015C4.14001 2.17815 4.18847 2.06115 4.27474 1.97488C4.36101 1.88861 4.47801 1.84015 4.60001 1.84015H15.64C15.762 1.84015 15.879 1.88861 15.9653 1.97488C16.0515 2.06115 16.1 2.17815 16.1 2.30015C16.1 2.54415 16.1969 2.77815 16.3695 2.95069C16.542 3.12322 16.776 3.22015 17.02 3.22015C17.142 3.22015 17.259 3.26861 17.3453 3.35488C17.4315 3.44115 17.48 3.55815 17.48 3.68015V8.28014C17.48 8.40214 17.4315 8.51915 17.3453 8.60541C17.259 8.69168 17.142 8.74014 17.02 8.74014C16.776 8.74014 16.542 8.83707 16.3695 9.0096C16.1969 9.18214 16.1 9.41614 16.1 9.66014C16.1 9.78214 16.0515 9.89915 15.9653 9.98541C15.879 10.0717 15.762 10.1201 15.64 10.1201ZM5.00021 9.20014H15.2398C15.3221 8.88232 15.4879 8.5923 15.72 8.36016C15.9522 8.12802 16.2422 7.96221 16.56 7.87994V4.08035C16.2422 3.99808 15.9522 3.83227 15.72 3.60013C15.4879 3.36799 15.3221 3.07797 15.2398 2.76015H5.00021C4.91794 3.07797 4.75214 3.36799 4.51999 3.60013C4.28785 3.83227 3.99783 3.99808 3.68001 4.08035V7.87994C3.99783 7.96221 4.28785 8.12802 4.51999 8.36016C4.75214 8.5923 4.91794 8.88232 5.00021 9.20014Z"/><path d="M10.1199 8.27984C9.66505 8.27984 9.22037 8.14495 8.84214 7.89222C8.4639 7.63949 8.16911 7.28028 7.99502 6.86001C7.82094 6.43974 7.7754 5.97729 7.86414 5.53113C7.95289 5.08498 8.17194 4.67516 8.4936 4.3535C8.81526 4.03183 9.22508 3.81278 9.67124 3.72403C10.1174 3.63529 10.5798 3.68084 11.0001 3.85492C11.4204 4.029 11.7796 4.3238 12.0323 4.70203C12.2851 5.08026 12.4199 5.52494 12.4199 5.97984C12.4199 6.58984 12.1776 7.17485 11.7463 7.60618C11.315 8.03752 10.7299 8.27984 10.1199 8.27984ZM10.1199 4.59984C9.84701 4.59984 9.5802 4.68078 9.35326 4.83241C9.12632 4.98405 8.94944 5.19957 8.84499 5.45174C8.74054 5.7039 8.71322 5.98137 8.76646 6.24906C8.81971 6.51676 8.95114 6.76265 9.14414 6.95565C9.33714 7.14864 9.58303 7.28007 9.85072 7.33332C10.1184 7.38657 10.3959 7.35924 10.648 7.25479C10.9002 7.15034 11.1157 6.97346 11.2674 6.74653C11.419 6.51959 11.4999 6.25278 11.4999 5.97984C11.4999 5.61384 11.3546 5.26283 11.0958 5.00403C10.837 4.74523 10.4859 4.59984 10.1199 4.59984Z"/><path d="M5.97994 6.89963C5.79798 6.89963 5.6201 6.84567 5.46881 6.74458C5.31752 6.64349 5.1996 6.49981 5.12997 6.3317C5.06034 6.16359 5.04212 5.97861 5.07761 5.80015C5.11311 5.62169 5.20073 5.45776 5.3294 5.32909C5.45806 5.20043 5.62199 5.11281 5.80045 5.07731C5.97892 5.04181 6.1639 5.06003 6.33201 5.12966C6.50011 5.1993 6.6438 5.31721 6.74489 5.46851C6.84598 5.6198 6.89994 5.79767 6.89994 5.97963C6.89994 6.22363 6.80301 6.45764 6.63047 6.63017C6.45794 6.8027 6.22394 6.89963 5.97994 6.89963Z"/><path d="M14.26 6.89963C14.0781 6.89963 13.9002 6.84567 13.7489 6.74458C13.5976 6.64349 13.4797 6.49981 13.4101 6.3317C13.3404 6.16359 13.3222 5.97861 13.3577 5.80015C13.3932 5.62169 13.4808 5.45776 13.6095 5.32909C13.7382 5.20043 13.9021 5.11281 14.0805 5.07731C14.259 5.04181 14.444 5.06003 14.6121 5.12966C14.7802 5.1993 14.9239 5.31721 15.025 5.46851C15.1261 5.6198 15.18 5.79767 15.18 5.97963C15.18 6.22363 15.0831 6.45764 14.9106 6.63017C14.738 6.8027 14.504 6.89963 14.26 6.89963Z"/><path d="M7.81999 18.4001H5.06C3.718 18.4001 2.43097 17.867 1.48204 16.9181C0.533105 15.9691 0 14.6821 0 13.3401C0 13.2181 0.0484642 13.1011 0.134731 13.0148C0.220998 12.9286 0.338 12.8801 0.46 12.8801H3.22C4.56199 12.8801 5.84902 13.4132 6.79796 14.3621C7.74689 15.3111 8.27999 16.5981 8.27999 17.9401C8.27999 18.0621 8.23153 18.1791 8.14526 18.2654C8.059 18.3516 7.94199 18.4001 7.81999 18.4001ZM0.947599 13.8001C1.06071 14.8118 1.54261 15.7464 2.30123 16.4252C3.05985 17.1041 4.04199 17.4796 5.06 17.4801H7.33239C7.21928 16.4684 6.73738 15.5338 5.97876 14.855C5.22015 14.1761 4.238 13.8006 3.22 13.8001H0.947599Z"/><path d="M15.18 19.3204H12.42C12.298 19.3204 12.181 19.2719 12.0948 19.1856C12.0085 19.0994 11.96 18.9824 11.96 18.8604C11.96 17.5184 12.4931 16.2314 13.4421 15.2824C14.391 14.3335 15.678 13.8004 17.02 13.8004H19.78C19.902 13.8004 20.019 13.8488 20.1053 13.9351C20.1916 14.0214 20.24 14.1384 20.24 14.2604C20.24 14.9249 20.1091 15.5829 19.8548 16.1968C19.6006 16.8107 19.2278 17.3685 18.758 17.8383C18.2881 18.3082 17.7303 18.6809 17.1164 18.9352C16.5025 19.1895 15.8445 19.3204 15.18 19.3204ZM12.9076 18.4004H15.18C16.198 18.3999 17.1802 18.0244 17.9388 17.3455C18.6974 16.6666 19.1793 15.7321 19.2924 14.7204H17.02C16.002 14.7209 15.0199 15.0964 14.2613 15.7753C13.5026 16.4541 13.0207 17.3887 12.9076 18.4004Z"/><path d="M10.12 13.34C9.99798 13.34 9.88097 13.2915 9.79471 13.2053C9.70844 13.119 9.65998 13.002 9.65998 12.88C9.65998 12.636 9.56305 12.402 9.39051 12.2295C9.21798 12.0569 8.98398 11.96 8.73998 11.96H3.21998C2.60998 11.96 2.02497 11.7177 1.59364 11.2863C1.1623 10.855 0.919983 10.27 0.919983 9.65999V2.3C0.919983 1.69 1.1623 1.10499 1.59364 0.673654C2.02497 0.242321 2.60998 0 3.21998 0H17.02C17.63 0 18.215 0.242321 18.6463 0.673654C19.0776 1.10499 19.32 1.69 19.32 2.3V9.65999C19.32 10.27 19.0776 10.855 18.6463 11.2863C18.215 11.7177 17.63 11.96 17.02 11.96H11.5C11.256 11.96 11.022 12.0569 10.8494 12.2295C10.6769 12.402 10.58 12.636 10.58 12.88C10.58 13.002 10.5315 13.119 10.4452 13.2053C10.359 13.2915 10.242 13.34 10.12 13.34ZM3.21998 0.919999C2.85398 0.919999 2.50297 1.06539 2.24417 1.32419C1.98537 1.58299 1.83998 1.934 1.83998 2.3V9.65999C1.83998 10.026 1.98537 10.377 2.24417 10.6358C2.50297 10.8946 2.85398 11.04 3.21998 11.04H8.73998C8.98168 11.0398 9.22105 11.0872 9.44442 11.1796C9.66779 11.2719 9.87077 11.4074 10.0418 11.5782L10.12 11.6656C10.2924 11.4693 10.5046 11.312 10.7426 11.2042C10.9805 11.0963 11.2387 11.0403 11.5 11.04H17.02C17.386 11.04 17.737 10.8946 17.9958 10.6358C18.2546 10.377 18.4 10.026 18.4 9.65999V2.3C18.4 1.934 18.2546 1.58299 17.9958 1.32419C17.737 1.06539 17.386 0.919999 17.02 0.919999H3.21998Z"/><path d="M10.1199 21.7628C9.99792 21.7628 9.88092 21.7144 9.79465 21.6281C9.70839 21.5418 9.65992 21.4248 9.65992 21.3028V20.2402C9.65992 19.7522 9.46607 19.2842 9.121 18.9391C8.77593 18.5941 8.30792 18.4002 7.81992 18.4002C7.69792 18.4002 7.58092 18.3518 7.49465 18.2655C7.40839 18.1792 7.35992 18.0622 7.35992 17.9402C7.35992 17.8182 7.40839 17.7012 7.49465 17.615C7.58092 17.5287 7.69792 17.4802 7.81992 17.4802C8.55192 17.4802 9.25394 17.771 9.77154 18.2886C10.2891 18.8062 10.5799 19.5082 10.5799 20.2402V21.3028C10.5799 21.4248 10.5315 21.5418 10.4452 21.6281C10.3589 21.7144 10.2419 21.7628 10.1199 21.7628Z"/><path d="M10.12 21.6201C9.99797 21.6201 9.88097 21.5716 9.7947 21.4854C9.70844 21.3991 9.65997 21.2821 9.65997 21.1601C9.65997 20.4281 9.95076 19.7261 10.4684 19.2085C10.986 18.6909 11.688 18.4001 12.42 18.4001C12.542 18.4001 12.659 18.4485 12.7452 18.5348C12.8315 18.6211 12.88 18.7381 12.88 18.8601C12.88 18.9821 12.8315 19.0991 12.7452 19.1854C12.659 19.2716 12.542 19.3201 12.42 19.3201C11.932 19.3201 11.464 19.5139 11.1189 19.859C10.7738 20.2041 10.58 20.6721 10.58 21.1601C10.58 21.2821 10.5315 21.3991 10.4452 21.4854C10.359 21.5716 10.242 21.6201 10.12 21.6201Z"/><path d="M10.12 21.6198C9.99797 21.6198 9.88097 21.5713 9.7947 21.485C9.70844 21.3988 9.65997 21.2818 9.65997 21.1598V12.8798C9.65997 12.7578 9.70844 12.6408 9.7947 12.5545C9.88097 12.4682 9.99797 12.4198 10.12 12.4198C10.242 12.4198 10.359 12.4682 10.4452 12.5545C10.5315 12.6408 10.58 12.7578 10.58 12.8798V21.1598C10.58 21.2818 10.5315 21.3988 10.4452 21.485C10.359 21.5713 10.242 21.6198 10.12 21.6198Z"/><path d="M15.18 23.0002H11.5C11.2388 22.9998 10.9806 22.9439 10.7426 22.836C10.5047 22.7281 10.2925 22.5708 10.12 22.3746C9.94761 22.5708 9.73536 22.7281 9.49742 22.836C9.25947 22.9439 9.00129 22.9998 8.74003 23.0002H5.06004C4.93804 23.0002 4.82103 22.9517 4.73477 22.8654C4.6485 22.7792 4.60004 22.6622 4.60004 22.5402C4.60004 22.4182 4.6485 22.3012 4.73477 22.2149C4.82103 22.1286 4.93804 22.0802 5.06004 22.0802H8.74003C8.98403 22.0802 9.21804 21.9832 9.39057 21.8107C9.5631 21.6382 9.66003 21.4042 9.66003 21.1602C9.66003 21.0382 9.7085 20.9212 9.79476 20.8349C9.88103 20.7486 9.99803 20.7002 10.12 20.7002C10.242 20.7002 10.359 20.7486 10.4453 20.8349C10.5316 20.9212 10.58 21.0382 10.58 21.1602C10.58 21.4042 10.677 21.6382 10.8495 21.8107C11.022 21.9832 11.256 22.0802 11.5 22.0802H15.18C15.302 22.0802 15.419 22.1286 15.5053 22.2149C15.5916 22.3012 15.64 22.4182 15.64 22.5402C15.64 22.6622 15.5916 22.7792 15.5053 22.8654C15.419 22.9517 15.302 23.0002 15.18 23.0002Z"/>
    </symbol>
    <symbol id="investments" viewBox="0 0 36 38">
      <path d="M34.9998 10.5299L13.9511 20.618L1 11.0881L22.0487 1L34.9998 10.5299Z" stroke="#fff"/><path d="M34.9998 18.6641L13.9511 28.7522L1 19.2223" stroke="#fff"/><path d="M34.9998 26.7985L13.9511 36.8867L1 27.3568" stroke="#fff"/>
    </symbol>
    <symbol id="lamp" viewBox="0 0 29 38">
      <path d="M22.0381 24.1004C20.6341 25.1344 19.4947 26.76 19.4947 28.6989V33.0674C19.4947 34.7243 18.1516 36.0674 16.4947 36.0674H12.4263C10.7694 36.0674 9.42626 34.7243 9.42626 33.0674V28.6989C9.42626 26.76 8.28686 25.1344 6.88286 24.1004C3.71812 21.7696 1.66797 18.0206 1.66797 13.7925C1.66797 6.72741 7.39538 1 14.4605 1C21.5256 1 27.253 6.72741 27.253 13.7925C27.253 18.0206 25.2029 21.7696 22.0381 24.1004Z" fill="none"/><path d="M9.28809 27.5851H19.6325" fill="none"/><path d="M9.28809 31.8952H19.6325" fill="none"/><path d="M7.56396 12.9305C7.56396 9.12178 10.6515 6.03422 14.4602 6.03422" fill="none"/>
    </symbol>
    <symbol id="map" viewBox="0 0 18 18">
      <path fill-rule="evenodd" clip-rule="evenodd" d="M9.83317 8.91664V14.8333H8.1665V8.91664C6.26464 8.53058 4.83317 6.84912 4.83317 4.83332C4.83317 2.53214 6.69865 0.666656 8.99984 0.666656C11.301 0.666656 13.1665 2.53214 13.1665 4.83332C13.1665 6.84912 11.735 8.53058 9.83317 8.91664ZM6.49984 10.7977V12.487C4.05582 12.7921 2.33317 13.4889 2.33317 14C2.33317 14.6725 5.31579 15.6667 8.99984 15.6667C12.6839 15.6667 15.6665 14.6725 15.6665 14C15.6665 13.4889 13.9439 12.7921 11.4998 12.487V10.7977C14.8797 11.1681 17.3332 12.3065 17.3332 14C17.3332 16.089 13.6001 17.3333 8.99984 17.3333C4.39962 17.3333 0.666504 16.089 0.666504 14C0.666504 12.3065 3.11994 11.1681 6.49984 10.7977ZM11.4998 4.83332C11.4998 6.21403 10.3805 7.33332 8.99984 7.33332C7.61912 7.33332 6.49984 6.21403 6.49984 4.83332C6.49984 3.45261 7.61912 2.33332 8.99984 2.33332C10.3805 2.33332 11.4998 3.45261 11.4998 4.83332Z" fill="#1D2435"/>
    </symbol>
    <symbol id="market-box" viewBox="0 0 34 39">
      <path d="M0.5 28.9604V10.5648L8.27355 14.5136L16.5 18.6925V38.1368L0.5 28.9604ZM17.5 38.1368V18.6925L33.5 10.5648V28.9604L17.5 38.1368ZM24.8544 5.08111L32.9485 9.72333L17 17.8249L9.54315 14.0369L24.8544 5.08111ZM23.8543 4.50755L8.48313 13.4985L1.0515 9.72333L17 0.576398L23.8543 4.50755Z" stroke="#fff"/>
    </symbol>
    <symbol id="metro" viewBox="0 0 20 14">
      <path fill-rule="evenodd" clip-rule="evenodd" d="M9.99861 13.8946L13.2441 8.32426L14.5915 12.0971H13.5035V13.7573H19.9855V12.0971H18.7483L14.0922 0.00231934L9.99861 7.44895L5.90506 0.00231934L1.24891 12.0971H0.0117188V13.7573H6.49369V12.0971H5.40566L6.75312 8.32426L9.99861 13.8946Z" fill="#FF1F55"/>
    </symbol>
    <symbol id="monitor" viewBox="0 0 20 18">
      <path fill-rule="evenodd" clip-rule="evenodd" d="M7.50016 14.8333V15.6667H5.8335V17.3333H14.1668V15.6667H12.5002V14.8333H17.5002C18.4206 14.8333 19.1668 14.0871 19.1668 13.1667V2.33332C19.1668 1.41285 18.4206 0.666656 17.5002 0.666656H2.50016C1.57969 0.666656 0.833496 1.41285 0.833496 2.33332V13.1667C0.833496 14.0871 1.57969 14.8333 2.50016 14.8333H7.50016ZM17.5002 13.1667H2.50016V2.33332H17.5002V13.1667Z" fill="#1D2435"/>
    </symbol>
    <symbol id="peace-of-pie" viewBox="0 0 34 34">
      <path d="M16.5 1V17.5L27.5 28.5" fill="none"/><circle cx="17" cy="17" r="16" fill="none"/>
    </symbol>
    <symbol id="phone" viewBox="0 0 18 18">
      <path fill-rule="evenodd" clip-rule="evenodd" d="M8.04709 5.94832C8.47885 5.36648 8.63367 4.75327 8.14537 4.212C7.04957 2.67868 6.31262 1.73048 5.85037 1.27385C4.97157 0.405741 3.52593 0.523167 2.76483 1.27311C2.35603 1.67591 2.21763 1.81424 1.79789 2.24058C-0.540153 4.57988 0.885705 9.52507 4.67616 13.3192C8.46575 17.1126 13.4105 18.5392 15.7534 16.1949C16.1408 15.8215 16.4687 15.4934 16.7273 15.2201C17.4732 14.4317 17.5864 13.0498 16.7224 12.1521C16.2795 11.6918 15.3753 10.9905 13.7774 9.84752C13.2881 9.40993 12.7078 9.50477 12.1759 9.85377C11.92 10.0216 11.7338 10.1915 11.3821 10.5435L10.7436 11.1823C10.6595 11.2665 9.51749 10.6946 8.40893 9.58493C7.29977 8.47468 6.72825 7.33262 6.81196 7.24892L7.45093 6.60959C7.5625 6.49792 7.61583 6.44385 7.68423 6.37196C7.82674 6.22219 7.94473 6.08627 8.04709 5.94832ZM11.9214 12.3609L12.5601 11.7218C12.7536 11.5281 12.8791 11.409 12.9811 11.3269C14.3808 12.3321 15.1914 12.9641 15.5225 13.3082C15.7213 13.5147 15.6905 13.8916 15.5176 14.0743C15.2785 14.3271 14.9678 14.638 14.5865 15.0057C13.0714 16.5214 9.07992 15.3698 5.85427 12.141C2.62762 8.91117 1.47657 4.91907 2.98016 3.41464C3.39822 2.99005 3.53067 2.85767 3.93363 2.46062C4.08472 2.31174 4.49627 2.27832 4.68006 2.45988C5.03595 2.81144 5.69612 3.65673 6.66726 5.00951C6.61698 5.07193 6.55419 5.14246 6.47778 5.22277C6.42169 5.28172 6.37497 5.32908 6.27282 5.43133L5.63447 6.07004C4.54851 7.1559 5.47335 9.004 7.23081 10.7632C8.98707 12.5212 10.8359 13.447 11.9214 12.3609Z" fill="#000"/>
    </symbol>
    <symbol id="prototype" viewBox="0 0 29 29">
      <path d="M0.5 0.5H28.5V28.5H0.5z"/><path class="st0" d="M0.5,15h28v13.5h-28V15z"/><path class="st0" d="M7.6,7.6l-7.1-7 M7.6,7.6l-7.1,7.1V0.5 M0.5,14.6l7.1-7.1l7.1,7.1 M14.6,14.6L7.6,7.6l7.1-6.9"/><path class="st0" d="M18.3,5.7h6.9"/><path class="st0" d="M18.6,8.8h5"/><path class="st0" d="M0.5,15h28l-28,13.2V15z M28.5,28.5h-28l28-13.2V28.5z"/><path class="st0" d="M14.6 0.6L14.6 15"/>
    </symbol>
    <symbol id="question" viewBox="0 0 36 35">
      <path d="M11.8372 14.8597C11.8372 11.4437 14.5443 8.67444 17.8837 8.67444C21.2231 8.67444 23.9302 11.4437 23.9302 14.8597C23.9302 18.2758 21.2231 21.045 17.8837 21.045V24.3954" stroke="#fff"/><path d="M17.8837 26.2093V28.6279" stroke="#fff"/><path d="M32.4256 24.5431L31.9735 24.3294L31.8825 24.522L31.9583 24.7211L32.4256 24.5431ZM27.8305 30.3666L27.9199 29.8747L27.6952 29.8338L27.5172 29.9769L27.8305 30.3666ZM35.1511 31.6977L35.0617 32.1896L35.934 32.3482L35.6184 31.5197L35.1511 31.6977ZM33.5 17.5C33.5 19.944 32.9524 22.2588 31.9735 24.3294L32.8776 24.7568C33.9183 22.5553 34.5 20.0949 34.5 17.5H33.5ZM17.5 1.5C26.3366 1.5 33.5 8.66344 33.5 17.5H34.5C34.5 8.11116 26.8888 0.5 17.5 0.5V1.5ZM1.5 17.5C1.5 8.66344 8.66344 1.5 17.5 1.5V0.5C8.11116 0.5 0.5 8.11116 0.5 17.5H1.5ZM17.5 33.5C8.66344 33.5 1.5 26.3366 1.5 17.5H0.5C0.5 26.8888 8.11116 34.5 17.5 34.5V33.5ZM27.5172 29.9769C24.7752 32.1813 21.2923 33.5 17.5 33.5V34.5C21.5283 34.5 25.2306 33.0982 28.1438 30.7563L27.5172 29.9769ZM35.2406 31.2057L27.9199 29.8747L27.741 30.8586L35.0617 32.1896L35.2406 31.2057ZM31.9583 24.7211L34.6839 31.8757L35.6184 31.5197L32.8928 24.3651L31.9583 24.7211Z" fill="#fff"/>
    </symbol>
    <symbol id="rocket" viewBox="0 0 28 39">
      <path d="M7.5 31C7.5 26.2604 7.5 16.0312 7.5 11.1562C7.5 6.28125 12.1042 2.35417 14.4062 1" stroke="#fff"/><path d="M20.5 31.0625C20.5 26.3861 20.5 15.8308 20.5 11.0208C20.5 6.21083 16.1667 2.33611 14 1" stroke="#fff"/><path d="M20.5 19.6875C22.6667 21.0236 27 24.8983 27 29.7083C27 34.5183 27 32.4799 27 37.1562L20.5 30.5" stroke="#fff"/><path d="M7.5 19.6875C5.33333 21.0547 1 25.0195 1 29.9414C1 34.8632 1 32.7774 1 37.5625L7.5 31.0625" stroke="#fff"/><circle cx="14" cy="14.13" r="3.957" stroke="#fff"/><path d="M11 17L7 20" stroke="#fff"/><path d="M7 31H21" stroke="#fff"/>
    </symbol>
    <symbol id="rooms" viewBox="0 0 33 30">
      <path d="M25.2481 1H32V29H1V1H16.5L21.608 9.01862" stroke="#fff"/><path d="M13.3002 18.9279H1V29H13.3002V18.9279Z" stroke="#fff"/><path d="M31.9998 18.9279H20.6096V29H31.9998V18.9279Z" stroke="#fff"/>
    </symbol>
    <symbol id="round-a" viewBox="0 0 40 40">
      <path opacity=".2" d="M38.1276 1.80859H29.9999C27.7908 1.80859 25.9999 3.59946 25.9999 5.8086V9.93625C25.9999 12.1454 24.2091 13.9363 21.9999 13.9363H17.8723C15.6632 13.9363 13.8723 15.7271 13.8723 17.9363V22.0639C13.8723 24.2731 12.0814 26.0639 9.87229 26.0639H5.74463C3.53549 26.0639 1.74463 27.8548 1.74463 30.0639V38.1916" fill="none" stroke="#F2F3F6" stroke-width="2" stroke-linecap="round" stroke-linejoin="round"/><path d="M11.0425 26.0639H5.74463C3.53549 26.0639 1.74463 27.8548 1.74463 30.0639V38.1916" fill="none"/>
    </symbol>
    <symbol id="round-b" viewBox="0 0 40 40">
      <path opacity=".2" d="M38.1701 1.80859H30.0424C27.8333 1.80859 26.0424 3.59946 26.0424 5.8086V9.93625C26.0424 12.1454 24.2516 13.9363 22.0424 13.9363H17.9148C15.7056 13.9363 13.9148 15.7271 13.9148 17.9363V22.0639C13.9148 24.2731 12.1239 26.0639 9.91477 26.0639H5.78711C3.57797 26.0639 1.78711 27.8548 1.78711 30.0639V38.1916" fill="none" stroke="#F2F3F6" stroke-width="2" stroke-linecap="round" stroke-linejoin="round"/><path d="M23.6169 13.9363H17.9148C15.7056 13.9363 13.9148 15.7271 13.9148 17.9363V22.0639C13.9148 24.273 12.1239 26.0639 9.91477 26.0639H5.78711C3.57797 26.0639 1.78711 27.8548 1.78711 30.0639V38.1916" fill="none"/>
    </symbol>
    <symbol id="round-c-plus" viewBox="0 0 38 38">
      <path d="M37 1H29C26.7909 1 25 2.79086 25 5V9C25 11.2091 23.2091 13 21 13H17C14.7909 13 13 14.7909 13 17V21C13 23.2091 11.2091 25 9 25H5C2.79086 25 1 26.7909 1 29V37" fill="none"/>
    </symbol>
    <symbol id="ruble-slash" viewBox="0 0 34 34">
      <path d="M13.5 32V25.5269M19 19.0538H22.9731C27.1301 19.0538 30.5 15.6839 30.5 11.5269V11.5269C30.5 7.3699 27.1301 4 22.9731 4H15.4498C14.373 4 13.5 4.87296 13.5 5.94982V19.0538V25.5269M13.5 25.5269H6M18 25.5269H24.5" fill="none"/><path d="M33 33L0.999999 1" fill="none" stroke="#474E5B" stroke-width="2"/>
    </symbol>
    <symbol id="ruble" viewBox="0 0 26 29">
      <path d="M8 29V22.5269M13.5 16.0538H17.4731C21.6301 16.0538 25 12.6839 25 8.52688V8.52688C25 4.3699 21.6301 1 17.4731 1H9.94982C8.87296 1 8 1.87296 8 2.94982V16.0538V22.5269M8 22.5269H0.5M12.5 22.5269H19" fill="none"/>
    </symbol>
    <symbol id="seed" viewBox="0 0 28 36">
      <path d="M27 22.127C27 29.228 21.1883 35 14 35C6.81169 35 1 29.228 1 22.127C1 20.967 1.37973 19.4847 2.07628 17.774C2.76651 16.0788 3.73696 14.233 4.84752 12.3682C7.06835 8.63898 9.80458 4.90817 11.847 2.27181C12.9568 0.839278 15.0432 0.839278 16.153 2.27181C18.1954 4.90817 20.9316 8.63898 23.1525 12.3682C24.263 14.233 25.2335 16.0788 25.9237 17.774C26.6203 19.4847 27 20.967 27 22.127Z" fill="none"/>
    </symbol>
    <symbol id="startup_type_1" viewBox="0 0 21 13">
      <path d="M1.18658 11.8956L8.91332 4.16883L12.7622 8.01772L19.7799 1"/><path d="M19.78 4.87784V1H15.9022"/>
    </symbol>
    <symbol id="startup_type_10" viewBox="0 0 17 16">
      <path d="M8.49041 5.07274C9.52129 5.07274 10.357 4.23704 10.357 3.20616C10.357 2.17528 9.52129 1.3396 8.49041 1.3396C7.45953 1.3396 6.62384 2.17528 6.62384 3.20616C6.62384 4.23704 7.45953 5.07274 8.49041 5.07274Z"/><path d="M13.8585 14.3766C14.8893 14.3766 15.725 13.5409 15.725 12.51C15.725 11.4791 14.8893 10.6434 13.8585 10.6434C12.8276 10.6434 11.9919 11.4791 11.9919 12.51C11.9919 13.5409 12.8276 14.3766 13.8585 14.3766Z"/><path d="M3.12212 14.3766C4.153 14.3766 4.98869 13.5409 4.98869 12.51C4.98869 11.4791 4.153 10.6434 3.12212 10.6434C2.09125 10.6434 1.25555 11.4791 1.25555 12.51C1.25555 13.5409 2.09125 14.3766 3.12212 14.3766Z"/><path d="M4.0481 10.8895L7.54972 4.82672"/><path d="M12.9178 10.8895L9.41614 4.82672"/><path d="M4.98895 12.5101H11.9777"/>
    </symbol>
    <symbol id="startup_type_11" viewBox="0 0 17 15">
      <path d="M8.49062 0.822388L1.06775 6.89957H15.899L8.49062 0.822388Z"/><path d="M13.3378 6.8996V13.599"/><path d="M8.49023 6.8996V13.599"/><path d="M3.64319 6.8996V13.599"/><path d="M1.18353 13.599H15.899"/>
    </symbol>
    <symbol id="startup_type_12" viewBox="0 0 19 8">
      <path d="M3.19594 6.91109H2.50141C1.69111 6.91109 1.02551 6.24546 1.02551 5.43517V2.33871C1.02551 1.52842 1.69111 0.862793 2.50141 0.862793H3.19594C4.00624 0.862793 4.67184 1.52842 4.67184 2.33871V5.43517C4.67184 6.25993 4.02071 6.91109 3.19594 6.91109Z"/><path d="M6.59625 0.862793H7.9998V6.73742"/><path d="M10.2137 0.862793H11.6173V6.73742"/><path d="M16.4787 6.91109H15.7697C14.9594 6.91109 14.2938 6.24546 14.2938 5.43517V2.33871C14.2938 1.52842 14.9594 0.862793 15.7697 0.862793H16.4787C17.289 0.862793 17.9546 1.52842 17.9546 2.33871V5.43517C17.9401 6.25993 17.289 6.91109 16.4787 6.91109Z"/>
    </symbol>
    <symbol id="startup_type_13" viewBox="0 0 15 15">
      <path d="M9.97432 0.921933L0.8479 10.0483L4.99164 14.1921L14.1181 5.06567L9.97432 0.921933Z"/><path d="M9.97931 0.928955H14.1176V5.0817"/><path d="M2.9184 12.1284L12.0487 2.99805"/>
    </symbol>
    <symbol id="startup_type_14" viewBox="0 0 13 12">
      <path d="M10.1655 7.83118H0.760254V11H10.1655V7.83118Z"/><path d="M10.1655 4.66229H0.760254V7.83112H10.1655V4.66229Z"/><path d="M12.22 1.49353H2.81476V4.66232H12.22V1.49353Z"/>
    </symbol>
    <symbol id="startup_type_15" viewBox="0 0 17 18">
      <path d="M1 16.5V3.54545L10.8571 1M10.8571 1L16 3.54545V16.5M10.8571 1V15M3.14286 6.09091L8.28571 4.81818M3.14286 9.48485L8.28571 8.21212M3.14286 12.8788L8.28571 11.6061" stroke-width="1.4" stroke-miterlimit="10" stroke-linecap="round" stroke-linejoin="round"/>
    </symbol>
    <symbol id="startup_type_1_active" viewBox="0 0 21 13">
      <path d="M1.18665 11.8956L8.91338 4.16883L12.7623 8.01772L19.78 1" stroke="#fff" stroke-width="1.4" stroke-miterlimit="10" stroke-linecap="round" stroke-linejoin="round"/><path d="M19.7801 4.87784V1H15.9022" stroke="#fff" stroke-width="1.4" stroke-miterlimit="10" stroke-linecap="round" stroke-linejoin="round"/>
    </symbol>
    <symbol id="startup_type_2" viewBox="0 0 19 13">
      <path d="M9.63492 4.66785H1.54645"/><path d="M5.29424 8.41551L1.54663 4.66791L5.29424 0.905823"/><path d="M9.3454 8.41553H17.4194"/><path d="M13.6719 12.1631L17.4195 8.41551L13.6719 4.66791"/>
    </symbol>
    <symbol id="startup_type_3" viewBox="0 0 23 16">
      <path d="M21.4164 5.07101L9.11725 8.7318L1.54968 5.27358L13.8488 1.61279L21.4164 5.07101Z"/><path d="M21.4163 8.02283L9.11719 11.6836L1.54962 8.2254"/><path d="M21.4163 10.9746L9.11719 14.6354L1.54962 11.1772"/>
    </symbol>
    <symbol id="startup_type_4" viewBox="0 0 15 19">
      <path d="M9.40059 7.11812H7.66425V5.38177C7.66425 3.05218 9.54528 1.17114 11.8749 1.17114H13.6112V2.90748C13.6112 5.23708 11.7157 7.11812 9.40059 7.11812Z"/><path d="M9.40059 17.7822H7.66425V16.0458C7.66425 13.7162 9.54528 11.8352 11.8749 11.8352H13.6112V13.5716C13.6112 15.9012 11.7157 17.7822 9.40059 17.7822Z"/><path d="M5.56598 12.9638H7.30232V11.2275C7.30232 8.89788 5.42129 7.01685 3.09169 7.01685H1.35535V8.75319C1.36982 11.0828 3.25086 12.9638 5.56598 12.9638Z"/><path d="M7.66425 17.7822V6.82874"/>
    </symbol>
    <symbol id="startup_type_5" viewBox="0 0 21 15">
      <path d="M1.59161 14.0874V9.89124H7.52412"/><path d="M7.52435 9.89123V5.70953H13.4569"/><path d="M13.4566 5.70953V1.51337H19.3746"/>
    </symbol>
    <symbol id="startup_type_6" viewBox="0 0 17 15">
      <path d="M12.8024 0.938232H16.1304V13.3676H0.850525V0.938232H8.49044L11.0081 4.49774"/><path d="M6.91314 8.89648H0.850403V13.3676H6.91314V8.89648Z"/><path d="M16.1302 8.89648H10.5161V13.3676H16.1302V8.89648Z"/>
    </symbol>
    <symbol id="startup_type_7" viewBox="0 0 21 16">
      <path d="M15.2221 1.12982L7.74134 8.61057L6.90211 9.39194H1.20111L6.35227 14.5431L9.72367 11.1717L12.9938 14.4418L14.7446 12.691V6.15075L19.7655 1.12982H15.2221Z"/><path d="M8.9277 3.69092H5.03539L4.00806 4.73273L5.94697 6.67164L8.9277 3.69092Z"/>
    </symbol>
    <symbol id="startup_type_8" viewBox="0 0 23 15">
        <path d="M17.611 1.08826H5.35529V10.0015H17.611V1.08826Z"/>
        <path d="M21.9664 13.9227H1L5.35533 10.0015H17.611L21.9664 13.9227Z"/>
    </symbol>
    <symbol id="startup_type_9" viewBox="0 0 21 16">
        <path d="M10.6786 14.8233L13.5435 11.9583C15.0918 12.1464 16.6979 11.6689 17.8844 10.4824C19.505 8.86185 19.8233 6.43098 18.8683 4.47759L15.9744 7.3715C15.3088 8.0371 14.2381 8.0371 13.5725 7.3715C12.9069 6.7059 12.9069 5.63515 13.5725 4.96955L16.4664 2.07565C14.2236 0.975962 11.3731 1.55476 9.79591 3.85541C9.0869 4.89722 8.81198 6.185 8.97115 7.41491L1.56274 14.8233H17.6239"/>
        <path d="M8.20453 12.5806L10.2447 10.5403"/>
    </symbol>

    <symbol id="time" viewBox="0 0 20 20">
        <path fill-rule="evenodd" clip-rule="evenodd"
              d="M10.0002 19.1667C4.93755 19.1667 0.833496 15.0626 0.833496 10C0.833496 4.93739 4.93755 0.833332 10.0002 0.833332C15.0628 0.833332 19.1668 4.93739 19.1668 10C19.1668 15.0626 15.0628 19.1667 10.0002 19.1667ZM10.0002 17.5C14.1423 17.5 17.5002 14.1421 17.5002 10C17.5002 5.85786 14.1423 2.5 10.0002 2.5C5.85803 2.5 2.50016 5.85786 2.50016 10C2.50016 14.1421 5.85803 17.5 10.0002 17.5ZM14.1668 9.16667H10.8335V5H9.16683V10.8333H14.1668V9.16667Z"
              fill="#000"/>
    </symbol>
    <symbol id="startupguide" viewBox="0 0 20 20">
        <path d="M5 12L12 5M12 5H7.69231M12 5V9.30769" stroke-width="1.4" stroke-miterlimit="10"
              stroke-linecap="round" stroke-linejoin="round"/>
        <rect x="1" y="1" width="15" height="15" stroke-width="1.4" stroke-miterlimit="10"
              stroke-linecap="round" stroke-linejoin="round"/>
    </symbol>
</svg>